<svg xmlns="http://www.w3.org/2000/svg" width="117" height="25.625" viewBox="0 0 117 25.625">
  <g id="グループ_24477" data-name="グループ 24477" transform="translate(-2025.854 0)">
    <path id="パス_5231" data-name="パス 5231" d="M2041.7,5.961l-.018-.011-.04-.012a.093.093,0,0,0,.058.023Z" fill="#0d0c22"/>
    <path id="パス_5232" data-name="パス 5232" d="M2041.96,7.791l-.02.006Z" fill="#0d0c22"/>
    <path id="パス_5233" data-name="パス 5233" d="M2041.711,5.958l-.007,0v.005l.007,0Z" fill="#0d0c22"/>
    <path id="パス_5234" data-name="パス 5234" d="M2041.7,5.961h0v0Z" fill="#0d0c22"/>
    <path id="パス_5235" data-name="パス 5235" d="M2041.944,7.788l.03-.017.011-.006.01-.011a.175.175,0,0,0-.051.034Z" fill="#0d0c22"/>
    <path id="パス_5236" data-name="パス 5236" d="M2041.755,6l-.029-.028-.019-.011a.081.081,0,0,0,.048.039Z" fill="#0d0c22"/>
    <path id="パス_5237" data-name="パス 5237" d="M2034.469,23.765a.152.152,0,0,0-.058.045l.018-.011C2034.441,23.787,2034.459,23.774,2034.469,23.765Z" fill="#0d0c22"/>
    <path id="パス_5238" data-name="パス 5238" d="M2038.7,22.933c0-.027-.013-.022-.009.071a.173.173,0,0,1,0-.022Z" fill="#0d0c22"/>
    <path id="パス_5239" data-name="パス 5239" d="M2038.261,23.765a.163.163,0,0,0-.059.045l.019-.011C2038.233,23.787,2038.251,23.774,2038.261,23.765Z" fill="#0d0c22"/>
    <path id="パス_5240" data-name="パス 5240" d="M2031.49,23.963a.122.122,0,0,0-.062-.029l.05.025Z" fill="#0d0c22"/>
    <path id="パス_5241" data-name="パス 5241" d="M2030.82,23.321a.189.189,0,0,0-.025-.077.5.5,0,0,1,.024.075Z" fill="#0d0c22"/>
    <path id="パス_5242" data-name="パス 5242" d="M2035.323,11.837a8.051,8.051,0,0,1-3.319.841,6.28,6.28,0,0,1-1.675-.231l.936,9.613a1.607,1.607,0,0,0,1.6,1.474s1.328.069,1.771.069c.476,0,1.906-.069,1.906-.069a1.608,1.608,0,0,0,1.6-1.474l1-10.623a4.264,4.264,0,0,0-1.41-.254A5.924,5.924,0,0,0,2035.323,11.837Z" fill="#fd0"/>
    <path id="パス_5243" data-name="パス 5243" d="M2027.431,7.736l.016.015.01.006a.178.178,0,0,0-.026-.021Z" fill="#0d0c22"/>
    <path id="パス_5244" data-name="パス 5244" d="M2043.476,6.849l-.141-.711a1.778,1.778,0,0,0-1.069-1.472,1.6,1.6,0,0,1-.609-.258,1.054,1.054,0,0,1-.245-.61c-.069-.4-.134-.808-.2-1.211a3.881,3.881,0,0,0-.268-1.053,1.86,1.86,0,0,0-1.063-.842,6.284,6.284,0,0,0-.668-.206,16.321,16.321,0,0,0-3.285-.444,27.559,27.559,0,0,0-3.95.065,11.755,11.755,0,0,0-2.936.535,2.479,2.479,0,0,0-.948.535A1.024,1.024,0,0,0,2027.9,2.4a1.579,1.579,0,0,0,.739.621,5.916,5.916,0,0,0,1.2.39,19.522,19.522,0,0,0,3.509.4,26.821,26.821,0,0,0,3.9-.127c.32-.035.639-.078.958-.127a.725.725,0,0,0,.505-.89.745.745,0,0,0-.89-.506l-.178.027-.042.006-.409.048q-.423.045-.847.075c-.633.044-1.269.064-1.9.065s-1.248-.018-1.871-.059q-.426-.027-.85-.071c-.128-.013-.256-.027-.385-.043l-.122-.015-.026,0-.127-.019c-.258-.039-.517-.083-.773-.137a.121.121,0,0,1-.065-.041.114.114,0,0,1-.026-.073.116.116,0,0,1,.026-.073.114.114,0,0,1,.065-.04h.005c.222-.048.445-.088.669-.123l.225-.034h0c.14-.01.281-.035.421-.052a26.746,26.746,0,0,1,3.657-.128c.593.017,1.185.052,1.775.112.127.013.253.026.379.042l.146.019.1.014q.429.063.852.155c.419.091.956.12,1.142.579a2.584,2.584,0,0,1,.119.46l.042.194,0,.011.3,1.379a.257.257,0,0,1,0,.1.262.262,0,0,1-.041.095.256.256,0,0,1-.172.105h0l-.06.008-.06.008c-.188.025-.378.048-.567.069q-.559.065-1.121.11-1.115.093-2.235.122-.57.015-1.14.014a39.6,39.6,0,0,1-4.528-.263c-.163-.019-.325-.04-.488-.061.126.016-.092-.013-.136-.019-.1-.014-.207-.029-.31-.045-.347-.052-.692-.116-1.039-.172a1.8,1.8,0,0,0-1.2.172,1.744,1.744,0,0,0-.722.748,4.387,4.387,0,0,0-.285,1.069,3.714,3.714,0,0,0-.143,1.126,1.8,1.8,0,0,0,1.463,1.6c.761.138,1.526.25,2.293.345a42.341,42.341,0,0,0,9.08.131c.246-.023.491-.048.737-.075a.52.52,0,0,1,.421.147.537.537,0,0,1,.122.193.517.517,0,0,1,.028.227l-.077.744-.462,4.509q-.242,2.369-.486,4.735l-.138,1.333c-.044.438-.05.889-.133,1.321a1.537,1.537,0,0,1-1.263,1.25,8.763,8.763,0,0,1-1.875.219c-.7,0-1.4-.027-2.1-.023a3.18,3.18,0,0,1-2.237-.621,2.977,2.977,0,0,1-.646-1.913q-.138-1.312-.273-2.624l-.507-4.864-.328-3.147c-.005-.052-.011-.1-.016-.156a.741.741,0,0,0-.724-.724.732.732,0,0,0-.724.724l.243,2.333.5,4.827q.215,2.055.428,4.113c.028.262.054.526.083.789a2.8,2.8,0,0,0,2.611,2.426,16.855,16.855,0,0,0,2.41.167,15.673,15.673,0,0,0,3.087-.13,3.2,3.2,0,0,0,2.793-2.837l.138-1.349q.228-2.23.457-4.463l.5-4.86.228-2.228a.521.521,0,0,1,.417-.455,2.015,2.015,0,0,0,1.146-.554A1.953,1.953,0,0,0,2043.476,6.849Zm-16.171.48c.007,0-.005.054-.01.08C2027.294,7.369,2027.3,7.334,2027.305,7.329Zm.042.323s.014.011.024.028c-.016-.015-.026-.027-.024-.028Zm.041.054c.015.025.023.041,0,0Zm.082.067h0l.006.007-.008-.007Zm14.428-.1a1.134,1.134,0,0,1-.617.249,43.445,43.445,0,0,1-7.8.491,52.565,52.565,0,0,1-5.558-.532.811.811,0,0,1-.5-.192c-.234-.251-.119-.758-.058-1.062.056-.279.162-.65.494-.69a6.6,6.6,0,0,1,1.629.236q.924.141,1.855.225a35.767,35.767,0,0,0,7.977-.149q.72-.1,1.436-.225c.425-.076.9-.219,1.154.221a1.831,1.831,0,0,1,.172,1.04.584.584,0,0,1-.18.388Z" fill="#0d0c22"/>
    <path id="パス_5245" data-name="パス 5245" d="M2057.538,14.837a2.373,2.373,0,0,1-.621.75,3.34,3.34,0,0,1-.922.519,4.638,4.638,0,0,1-1.06.269,3.582,3.582,0,0,1-1.035-.012,2.009,2.009,0,0,1-.854-.332l.264-2.737c.242-.084.547-.169.916-.257a8.365,8.365,0,0,1,1.135-.187,4.881,4.881,0,0,1,1.1.012,1.529,1.529,0,0,1,.822.332,1.649,1.649,0,0,1,.276.325.88.88,0,0,1,.138.362A1.6,1.6,0,0,1,2057.538,14.837Zm-3.827-5.831a3.047,3.047,0,0,1,.634-.288,3.927,3.927,0,0,1,.759-.175,3.333,3.333,0,0,1,.759-.012,1.549,1.549,0,0,1,.652.206,1.021,1.021,0,0,1,.421.487,1.537,1.537,0,0,1,.075.807,1.133,1.133,0,0,1-.307.656,2.208,2.208,0,0,1-.628.45,4.018,4.018,0,0,1-.784.287,6.43,6.43,0,0,1-.8.157c-.255.033-.476.054-.664.062s-.312.013-.371.013Zm5.182,4.062a2.564,2.564,0,0,0-.54-.768,2.021,2.021,0,0,0-.8-.482,1.749,1.749,0,0,0,.4-.512,4.572,4.572,0,0,0,.332-.763,4.146,4.146,0,0,0,.188-.831,1.807,1.807,0,0,0-.037-.719,2.378,2.378,0,0,0-1.738-1.763,3.466,3.466,0,0,0-1.342-.068,7.063,7.063,0,0,0-1.5.368.768.768,0,0,1,.013-.131.817.817,0,0,0,.012-.144.4.4,0,0,0-.188-.325.878.878,0,0,0-.433-.162.785.785,0,0,0-.476.106.716.716,0,0,0-.32.481q-.1,1.126-.2,2.338t-.213,2.451q-.114,1.237-.226,2.456t-.226,2.344a1,1,0,0,0,.188.525.586.586,0,0,0,.351.225.671.671,0,0,0,.421-.069.939.939,0,0,0,.382-.369,3.181,3.181,0,0,0,1.13.357,5.021,5.021,0,0,0,1.273,0,5.946,5.946,0,0,0,1.273-.307,5.368,5.368,0,0,0,1.142-.562,3.782,3.782,0,0,0,.866-.769,2.249,2.249,0,0,0,.464-.931,3.286,3.286,0,0,0,.063-1.025A2.963,2.963,0,0,0,2058.893,13.068Z" fill="#0d0c23" fill-rule="evenodd"/>
    <path id="パス_5246" data-name="パス 5246" d="M2071.133,19.669c-.046.275-.112.564-.2.869a5.705,5.705,0,0,1-.295.831,2.363,2.363,0,0,1-.376.606.485.485,0,0,1-.446.194.274.274,0,0,1-.238-.237,1.394,1.394,0,0,1,0-.525,3.762,3.762,0,0,1,.2-.707,6.144,6.144,0,0,1,.821-1.525,3.382,3.382,0,0,1,.552-.594.663.663,0,0,1,.057.375A5.368,5.368,0,0,1,2071.133,19.669Zm4.253-5.426a.629.629,0,0,0-.414-.212.6.6,0,0,0-.5.275,2.951,2.951,0,0,1-.414.575,5.2,5.2,0,0,1-.521.5,6,6,0,0,1-.514.388q-.245.162-.383.237a7.917,7.917,0,0,1-.056-.863c0-.308,0-.62.019-.937a11.782,11.782,0,0,1,.157-1.363,8.93,8.93,0,0,1,.344-1.35.928.928,0,0,0-.163-.569.666.666,0,0,0-.872-.212,1,1,0,0,0-.42.431q-.15.413-.345.925t-.439,1.044a10.44,10.44,0,0,1-.546,1.031,5.382,5.382,0,0,1-.659.888,2.836,2.836,0,0,1-.777.606,1.741,1.741,0,0,1-.91.194.491.491,0,0,1-.326-.337,2.33,2.33,0,0,1-.119-.688,5.731,5.731,0,0,1,.037-.906c.038-.329.088-.657.151-.982s.132-.633.207-.925.146-.537.213-.737a.64.64,0,0,0,0-.607.728.728,0,0,0-.414-.325.921.921,0,0,0-.552.007.634.634,0,0,0-.414.387,9.736,9.736,0,0,0-.389,1.15,11.8,11.8,0,0,0-.282,1.319,9.893,9.893,0,0,0-.119,1.35c0,.029,0,.057,0,.086a5.527,5.527,0,0,1-.521,1.1.736.736,0,0,1-.721.412.439.439,0,0,1-.233-.35,2.779,2.779,0,0,1-.037-.675,8.993,8.993,0,0,1,.094-.906q.075-.507.188-1.05t.238-1.094q.126-.55.226-1.038a.915.915,0,0,0-.257-.669.815.815,0,0,0-.684-.181,1.008,1.008,0,0,0-.445.325,1.584,1.584,0,0,0-.232.513q-.051.162-.151.65t-.257,1.119q-.157.632-.37,1.318a9.308,9.308,0,0,1-.477,1.244,3.533,3.533,0,0,1-.577.894.731.731,0,0,1-.678.275c-.133-.025-.219-.162-.257-.412a4.332,4.332,0,0,1-.018-.925,12.032,12.032,0,0,1,.15-1.207q.112-.656.232-1.244t.22-1.037q.1-.45.138-.6a.955.955,0,0,0-.163-.582.666.666,0,0,0-.872-.212,1,1,0,0,0-.421.431c-.042.225-.1.486-.163.781s-.132.6-.194.913-.122.619-.176.919-.094.562-.119.787q-.026.263-.057.644c-.021.255-.031.523-.031.807a5.656,5.656,0,0,0,.063.843,2.738,2.738,0,0,0,.226.769,1.5,1.5,0,0,0,.458.575,1.313,1.313,0,0,0,.746.25,2.548,2.548,0,0,0,.809-.069,1.975,1.975,0,0,0,.628-.293,2.775,2.775,0,0,0,.514-.475c.155-.184.307-.384.458-.6a1.877,1.877,0,0,0,.552.737,1.473,1.473,0,0,0,.715.313,1.5,1.5,0,0,0,.766-.107,1.786,1.786,0,0,0,.7-.531,3.823,3.823,0,0,0,.39-.52,2.24,2.24,0,0,0,.168.258,1.566,1.566,0,0,0,.835.55,2.481,2.481,0,0,0,1.1.05,3.552,3.552,0,0,0,1.029-.363,4.846,4.846,0,0,0,.909-.631,5.664,5.664,0,0,0,.734-.769c-.008.192-.012.373-.012.544s0,.356-.013.556a7.145,7.145,0,0,0-1.185,1.05,8.31,8.31,0,0,0-.979,1.307,7,7,0,0,0-.659,1.406,4.078,4.078,0,0,0-.232,1.331,2.045,2.045,0,0,0,.295,1.082,1.607,1.607,0,0,0,.941.662,1.774,1.774,0,0,0,1.192.013,2.191,2.191,0,0,0,.9-.663,3.834,3.834,0,0,0,.627-1.119,9.035,9.035,0,0,0,.389-1.368,9.757,9.757,0,0,0,.182-1.4,10.015,10.015,0,0,0,0-1.225,5.44,5.44,0,0,0,1.769-1.137,7.281,7.281,0,0,0,1.142-1.451.569.569,0,0,0,.094-.449A.867.867,0,0,0,2075.386,14.243Z" fill="#0d0c23" fill-rule="evenodd"/>
    <path id="パス_5247" data-name="パス 5247" d="M2091.213,13.444a6.141,6.141,0,0,1,.112-.607,4.947,4.947,0,0,1,.189-.619,2.415,2.415,0,0,1,.263-.518.98.98,0,0,1,.32-.313.317.317,0,0,1,.345.019.6.6,0,0,1,.232.475,1.821,1.821,0,0,1-.088.775,2.047,2.047,0,0,1-.47.775,1.641,1.641,0,0,1-.916.475A1.734,1.734,0,0,1,2091.213,13.444Zm4.347.512a.712.712,0,0,0-.4-.012.321.321,0,0,0-.239.262,3.691,3.691,0,0,1-.32.819,4.287,4.287,0,0,1-.539.794,3.974,3.974,0,0,1-.722.662,2.7,2.7,0,0,1-.84.413,1.132,1.132,0,0,1-.728.031.919.919,0,0,1-.458-.362,1.783,1.783,0,0,1-.245-.619,4.37,4.37,0,0,1-.087-.75,2.26,2.26,0,0,0,1.273-.257,3,3,0,0,0,.947-.812,3.678,3.678,0,0,0,.59-1.138,4.766,4.766,0,0,0,.226-1.256,2.237,2.237,0,0,0-.176-.994,1.54,1.54,0,0,0-.508-.631,1.485,1.485,0,0,0-.734-.263,1.979,1.979,0,0,0-.841.113,2.032,2.032,0,0,0-.871.569,3.532,3.532,0,0,0-.6.912,5.842,5.842,0,0,0-.376,1.119,10.151,10.151,0,0,0-.2,1.181c-.037.348-.057.681-.064,1l-.055.123a7.4,7.4,0,0,1-.451.869,3.221,3.221,0,0,1-.571.713.681.681,0,0,1-.653.2c-.133-.033-.207-.188-.219-.463a7.2,7.2,0,0,1,.043-1.025q.064-.612.145-1.325a12.087,12.087,0,0,0,.081-1.363,2.818,2.818,0,0,0-.213-1.081,2.4,2.4,0,0,0-.583-.862,1.847,1.847,0,0,0-.859-.457,1.61,1.61,0,0,0-1.054.15,2.193,2.193,0,0,0-.9.738,9.243,9.243,0,0,0-.609,1,2.956,2.956,0,0,0-.295-.744,2.4,2.4,0,0,0-.477-.6,2.139,2.139,0,0,0-.633-.4,1.933,1.933,0,0,0-.741-.144,1.678,1.678,0,0,0-.7.144,2.422,2.422,0,0,0-.583.369,3.185,3.185,0,0,0-.477.506,5.981,5.981,0,0,0-.376.556q-.025-.324-.057-.569a1.354,1.354,0,0,0-.113-.412.568.568,0,0,0-.232-.256.857.857,0,0,0-.426-.088.729.729,0,0,0-.276.056.784.784,0,0,0-.245.157.639.639,0,0,0-.2.575,1.9,1.9,0,0,0,.069.331,4.373,4.373,0,0,1,.107.506c.033.209.061.461.081.757s.028.658.019,1.087-.039.932-.094,1.507-.14,1.242-.257,2a.442.442,0,0,0,.2.425,1.052,1.052,0,0,0,1.06.087.521.521,0,0,0,.295-.437q.038-.588.144-1.25t.264-1.313q.156-.649.357-1.238a6.8,6.8,0,0,1,.446-1.037,3.209,3.209,0,0,1,.508-.719.773.773,0,0,1,.552-.269.608.608,0,0,1,.546.319,2.284,2.284,0,0,1,.275.819,6.334,6.334,0,0,1,.076,1.094q-.007.594-.05,1.144c-.03.366-.063.693-.1.981s-.065.486-.081.594a.545.545,0,0,0,.219.456.975.975,0,0,0,.49.2.827.827,0,0,0,.508-.1.547.547,0,0,0,.276-.444,18.1,18.1,0,0,1,.345-1.806,12.357,12.357,0,0,1,.5-1.625,4.945,4.945,0,0,1,.627-1.175.952.952,0,0,1,.734-.457c.134,0,.236.092.307.275a2.137,2.137,0,0,1,.107.75,4.845,4.845,0,0,1-.056.719q-.057.369-.132.763t-.132.806a6.336,6.336,0,0,0-.056.863,4.866,4.866,0,0,0,.062.725,2.787,2.787,0,0,0,.238.781,1.838,1.838,0,0,0,.484.625,1.182,1.182,0,0,0,.784.256,2.571,2.571,0,0,0,1.267-.306,3.166,3.166,0,0,0,.947-.8c.014-.017.026-.035.04-.053.02.049.038.1.061.147a2.055,2.055,0,0,0,.734.85,2.171,2.171,0,0,0,1.091.331,3.574,3.574,0,0,0,1.368-.231,3.751,3.751,0,0,0,.959-.5,3.581,3.581,0,0,0,.734-.731,5.857,5.857,0,0,0,.6-.994q.268-.562.545-1.288a.364.364,0,0,0-.094-.356A.776.776,0,0,0,2095.56,13.956Z" fill="#0d0c23" fill-rule="evenodd"/>
    <path id="パス_5248" data-name="パス 5248" d="M2102.379,12.562q-.063.369-.17.812c-.071.3-.161.6-.27.919a4.127,4.127,0,0,1-.4.857,2.154,2.154,0,0,1-.546.606,1,1,0,0,1-.709.187.392.392,0,0,1-.307-.275,1.7,1.7,0,0,1-.113-.637,4.872,4.872,0,0,1,.069-.85,5.3,5.3,0,0,1,.232-.907,4.519,4.519,0,0,1,.383-.819,1.888,1.888,0,0,1,.52-.581,1.044,1.044,0,0,1,.647-.194,1.286,1.286,0,0,1,.753.35C2102.449,12.139,2102.421,12.316,2102.379,12.562Zm4.46.956a.543.543,0,0,0-.4-.044q-.207.057-.295.382a4.132,4.132,0,0,1-.225.825,5.352,5.352,0,0,1-.433.9,2.838,2.838,0,0,1-.59.706.971.971,0,0,1-.709.256.487.487,0,0,1-.439-.318,1.947,1.947,0,0,1-.132-.738,5.583,5.583,0,0,1,.088-1q.094-.557.226-1.106t.27-1.057c.092-.337.167-.623.226-.856a.557.557,0,0,0-.063-.531.912.912,0,0,0-.408-.313.926.926,0,0,0-.5-.05.387.387,0,0,0-.326.269,2.523,2.523,0,0,0-1.424-.688,2.086,2.086,0,0,0-1.261.3,3.334,3.334,0,0,0-1.022,1.013,6.492,6.492,0,0,0-1.067,3.038,4.358,4.358,0,0,0,.107,1.481,2.268,2.268,0,0,0,.621,1.094,1.684,1.684,0,0,0,1.211.425,1.616,1.616,0,0,0,.652-.137,3.265,3.265,0,0,0,.578-.326,3.388,3.388,0,0,0,.464-.393c.133-.138.238-.252.313-.344a2.182,2.182,0,0,0,.289.763,2.019,2.019,0,0,0,.458.512,1.814,1.814,0,0,0,.539.294,1.746,1.746,0,0,0,.546.094,1.765,1.765,0,0,0,1.1-.4,4.5,4.5,0,0,0,.923-.981,6.3,6.3,0,0,0,.671-1.225,5.732,5.732,0,0,0,.351-1.144.41.41,0,0,0-.031-.394A.776.776,0,0,0,2106.839,13.518Z" fill="#0d0c23" fill-rule="evenodd"/>
    <path id="パス_5249" data-name="パス 5249" d="M2129.423,20.419a1.922,1.922,0,0,1-.333.719.724.724,0,0,1-.564.307.333.333,0,0,1-.327-.225,1.989,1.989,0,0,1-.156-.613,6.4,6.4,0,0,1-.038-.838q.006-.462.038-.912c.02-.3.046-.58.075-.838s.052-.458.069-.6a1.087,1.087,0,0,1,.709.369,2.236,2.236,0,0,1,.433.756,3.436,3.436,0,0,1,.175.944A3.166,3.166,0,0,1,2129.423,20.419Zm-4.542,0a1.922,1.922,0,0,1-.333.719.723.723,0,0,1-.564.307.331.331,0,0,1-.326-.225,1.96,1.96,0,0,1-.157-.613,6.4,6.4,0,0,1-.038-.838q.006-.462.038-.912c.021-.3.046-.58.075-.838s.052-.458.069-.6a1.087,1.087,0,0,1,.709.369,2.236,2.236,0,0,1,.433.756,3.436,3.436,0,0,1,.176.944A3.2,3.2,0,0,1,2124.881,20.419Zm-4.661-7.1a3.679,3.679,0,0,1-.057.531.526.526,0,0,1-.119.294,1.172,1.172,0,0,1-.339-.388,2.663,2.663,0,0,1-.313-.706,1.958,1.958,0,0,1-.069-.775.772.772,0,0,1,.4-.594.169.169,0,0,1,.238.056,1.067,1.067,0,0,1,.164.382,3.642,3.642,0,0,1,.087.575A5.257,5.257,0,0,1,2120.22,13.319Zm-1.11,2.494a2.274,2.274,0,0,1-.433.356,1.978,1.978,0,0,1-.49.225.959.959,0,0,1-.451.038,1.419,1.419,0,0,1-.866-.488,1.854,1.854,0,0,1-.383-.881,3.265,3.265,0,0,1,.019-1.082,4.04,4.04,0,0,1,.339-1.068,3.282,3.282,0,0,1,.577-.85,1.44,1.44,0,0,1,.74-.444,4.319,4.319,0,0,0-.1,1.319,3.68,3.68,0,0,0,.326,1.281,3.345,3.345,0,0,0,.42.662,2.265,2.265,0,0,0,.6.513A1.689,1.689,0,0,1,2119.11,15.813Zm13.882-2.369a6.156,6.156,0,0,1,.113-.607,5.1,5.1,0,0,1,.188-.618,2.381,2.381,0,0,1,.264-.519.983.983,0,0,1,.32-.313.317.317,0,0,1,.345.019.606.606,0,0,1,.232.475,1.821,1.821,0,0,1-.088.775,2.042,2.042,0,0,1-.471.775,1.638,1.638,0,0,1-.915.475A1.759,1.759,0,0,1,2132.992,13.444Zm5.056,0a6.152,6.152,0,0,1,.113-.607,4.892,4.892,0,0,1,.189-.618,2.412,2.412,0,0,1,.263-.519.981.981,0,0,1,.32-.313.317.317,0,0,1,.345.019.6.6,0,0,1,.232.475,1.82,1.82,0,0,1-.088.775,2.043,2.043,0,0,1-.47.775,1.64,1.64,0,0,1-.916.475A1.761,1.761,0,0,1,2138.048,13.444Zm4.7.731a.778.778,0,0,0-.351-.219.724.724,0,0,0-.4-.012.324.324,0,0,0-.238.262,3.727,3.727,0,0,1-.32.819,4.264,4.264,0,0,1-.539.794,4.059,4.059,0,0,1-.722.663,2.73,2.73,0,0,1-.84.412,1.133,1.133,0,0,1-.728.031.91.91,0,0,1-.458-.362,1.775,1.775,0,0,1-.245-.619,4.47,4.47,0,0,1-.088-.75,2.261,2.261,0,0,0,1.274-.256,3,3,0,0,0,.947-.813,3.683,3.683,0,0,0,.59-1.137,4.763,4.763,0,0,0,.226-1.257,2.253,2.253,0,0,0-.176-.994,1.547,1.547,0,0,0-.508-.631,1.484,1.484,0,0,0-.734-.262,1.961,1.961,0,0,0-.841.112,2.042,2.042,0,0,0-.871.569,3.513,3.513,0,0,0-.6.912,5.68,5.68,0,0,0-.377,1.119,9.925,9.925,0,0,0-.2,1.182c-.041.376-.063.736-.068,1.08q-.048.1-.1.207a4.212,4.212,0,0,1-.54.794,4.01,4.01,0,0,1-.721.663,2.728,2.728,0,0,1-.841.412,1.13,1.13,0,0,1-.727.031.9.9,0,0,1-.458-.362,1.756,1.756,0,0,1-.245-.619,4.323,4.323,0,0,1-.088-.75,2.261,2.261,0,0,0,1.274-.256,3,3,0,0,0,.947-.813,3.677,3.677,0,0,0,.59-1.137,4.814,4.814,0,0,0,.226-1.257,2.253,2.253,0,0,0-.176-.994,1.553,1.553,0,0,0-.508-.631,1.486,1.486,0,0,0-.734-.262,1.96,1.96,0,0,0-.841.112,2.049,2.049,0,0,0-.872.569,3.571,3.571,0,0,0-.6.912,5.775,5.775,0,0,0-.376,1.119,10.131,10.131,0,0,0-.2,1.182c-.023.218-.039.43-.051.638-.081.069-.16.138-.244.2a7.453,7.453,0,0,1-.909.632,5.631,5.631,0,0,1-.991.462,4,4,0,0,1-1.054.219l.778-8.3a.5.5,0,0,0-.076-.462.756.756,0,0,0-.389-.275.82.82,0,0,0-.508.012.806.806,0,0,0-.445.4q-.089.475-.182,1.3t-.188,1.8q-.094.975-.189,2.012t-.163,1.938l0,.077c-.074.062-.145.124-.221.185a7.453,7.453,0,0,1-.909.632,5.6,5.6,0,0,1-.991.462,3.991,3.991,0,0,1-1.054.219l.778-8.3a.5.5,0,0,0-.076-.462.756.756,0,0,0-.389-.275.82.82,0,0,0-.508.012.806.806,0,0,0-.445.4q-.089.475-.182,1.3t-.188,1.8q-.094.975-.188,2.012t-.164,1.938l0,.035a3.052,3.052,0,0,1-.43.159,2.274,2.274,0,0,1-.54.081,4.719,4.719,0,0,0,.082-.5c.02-.183.038-.375.05-.575s.016-.4.013-.6-.015-.383-.032-.55a4.712,4.712,0,0,0-.232-1.019,2.392,2.392,0,0,0-.458-.806,1.418,1.418,0,0,0-.721-.438,1.8,1.8,0,0,0-1.01.075,3.055,3.055,0,0,0-1.537.156,3.37,3.37,0,0,0-1.186.782,4.277,4.277,0,0,0-.822,1.206,5.191,5.191,0,0,0-.426,1.425,4.988,4.988,0,0,0-.05.618,3.661,3.661,0,0,1-.427.689,3.761,3.761,0,0,1-.69.675,3.174,3.174,0,0,1-.709.4,3.368,3.368,0,0,1-.627.187,1.775,1.775,0,0,1-.628.013,1.04,1.04,0,0,1-.552-.288,1.126,1.126,0,0,1-.307-.562,3.866,3.866,0,0,1-.125-.882,7.25,7.25,0,0,1,.037-1.031,5.877,5.877,0,0,1,.195-1.019,4.071,4.071,0,0,1,.351-.863,1.355,1.355,0,0,1,.5-.543.228.228,0,0,1,.2.193,1.341,1.341,0,0,1,.018.4c-.012.155-.031.313-.056.475a2.77,2.77,0,0,0-.038.407,1,1,0,0,0,.245.525.694.694,0,0,0,.408.219.65.65,0,0,0,.445-.107.977.977,0,0,0,.358-.437.05.05,0,0,0,.037.012l.176-1.587a.684.684,0,0,0-.1-.575.648.648,0,0,0-.464-.288,1.219,1.219,0,0,0-.985-.556,2.087,2.087,0,0,0-1.273.406,2.643,2.643,0,0,0-.709.794,5.137,5.137,0,0,0-.5,1.125,7.183,7.183,0,0,0-.276,1.306,6.838,6.838,0,0,0-.031,1.338,5.408,5.408,0,0,0,.232,1.225,2.781,2.781,0,0,0,.508.963,1.716,1.716,0,0,0,.627.494,2.364,2.364,0,0,0,.734.193,2.717,2.717,0,0,0,.759-.031,4.255,4.255,0,0,0,.716-.194,7.257,7.257,0,0,0,.9-.412,5.658,5.658,0,0,0,.891-.6,5.393,5.393,0,0,0,.433-.4,3.189,3.189,0,0,0,.219.451,2.657,2.657,0,0,0,.916.912,2.605,2.605,0,0,0,1.418.338,3.332,3.332,0,0,0,2.923-1.763,4.469,4.469,0,0,0,1.442-.24l-.012.153q-.049.661-.05.9-.012.412-.056,1.018c-.03.405-.048.83-.057,1.276a12.508,12.508,0,0,0,.05,1.35,4.99,4.99,0,0,0,.264,1.238,2.632,2.632,0,0,0,.571.943,1.56,1.56,0,0,0,.972.463,1.54,1.54,0,0,0,1.1-.225,2.328,2.328,0,0,0,.753-.856,4.15,4.15,0,0,0,.408-1.257,6.123,6.123,0,0,0,.069-1.431,5.48,5.48,0,0,0-.264-1.357,2.889,2.889,0,0,0-.59-1.05,2.482,2.482,0,0,0,.54-.237c.209-.117.425-.248.646-.394.055-.036.108-.074.163-.111q-.031.444-.031.63-.012.412-.057,1.018t-.056,1.276a12.508,12.508,0,0,0,.05,1.35,4.99,4.99,0,0,0,.264,1.238,2.644,2.644,0,0,0,.57.943,1.562,1.562,0,0,0,.973.463,1.542,1.542,0,0,0,1.1-.225,2.337,2.337,0,0,0,.753-.856,4.15,4.15,0,0,0,.408-1.257,6.136,6.136,0,0,0,.069-1.431,5.492,5.492,0,0,0-.264-1.357,2.892,2.892,0,0,0-.59-1.05,2.486,2.486,0,0,0,.54-.237q.313-.175.646-.394c.115-.076.23-.154.344-.235a3.177,3.177,0,0,0,.283,1.066,2.069,2.069,0,0,0,.734.85,2.173,2.173,0,0,0,1.092.332,3.6,3.6,0,0,0,1.368-.232,3.788,3.788,0,0,0,.959-.5,3.581,3.581,0,0,0,.734-.731c.013-.017.025-.035.037-.052a2.693,2.693,0,0,0,.133.333,2.063,2.063,0,0,0,.734.85,2.17,2.17,0,0,0,1.091.332,3.6,3.6,0,0,0,1.368-.232,3.778,3.778,0,0,0,.96-.5,3.629,3.629,0,0,0,.734-.731,5.853,5.853,0,0,0,.595-.994q.27-.562.546-1.288A.365.365,0,0,0,2142.747,14.175Z" fill="#0d0c23" fill-rule="evenodd"/>
  </g>
</svg>
