<svg xmlns="http://www.w3.org/2000/svg" xmlns:xlink="http://www.w3.org/1999/xlink" width="50" height="50" viewBox="0 0 50 50">
  <defs>
    <filter id="Mask" x="-12" y="-12" width="68" height="68" filterUnits="userSpaceOnUse">
      <feOffset dx="-3" dy="-3" input="SourceAlpha"/>
      <feGaussianBlur stdDeviation="3" result="blur"/>
      <feFlood flood-color="#fff"/>
      <feComposite operator="in" in2="blur"/>
      <feComposite in="SourceGraphic"/>
    </filter>
    <clipPath id="clip-path">
      <g transform="matrix(1, 0, 0, 1, 0, 0)" filter="url(#Mask)">
        <rect id="Mask-2" data-name="Mask" width="50" height="50" rx="25" transform="translate(0 0)" fill="#f5f5f5"/>
      </g>
    </clipPath>
    <filter id="Neuo_dark_shade_" x="1.409" y="1.409" width="49.182" height="49.182" filterUnits="userSpaceOnUse">
      <feOffset dx="1" dy="1" input="SourceAlpha"/>
      <feGaussianBlur stdDeviation="1" result="blur-2"/>
      <feFlood flood-opacity="0.161"/>
      <feComposite operator="in" in2="blur-2"/>
      <feComposite in="SourceGraphic"/>
    </filter>
    <filter id="Neuo_white_shade_" x="-0.591" y="-0.591" width="49.182" height="49.182" filterUnits="userSpaceOnUse">
      <feOffset dx="-1" dy="-1" input="SourceAlpha"/>
      <feGaussianBlur stdDeviation="1" result="blur-3"/>
      <feFlood flood-color="#fff"/>
      <feComposite operator="in" in2="blur-3"/>
      <feComposite in="SourceGraphic"/>
    </filter>
    <filter id="Button_background" x="-8.591" y="-8.591" width="61.182" height="61.182" filterUnits="userSpaceOnUse">
      <feOffset dx="-3" dy="-3" input="SourceAlpha"/>
      <feGaussianBlur stdDeviation="3" result="blur-4"/>
      <feFlood flood-color="#fff"/>
      <feComposite operator="in" in2="blur-4"/>
      <feComposite in="SourceGraphic"/>
    </filter>
  </defs>
  <g id="グループ_84" data-name="グループ 84" transform="translate(-1282 -8552)">
    <g id="Button" transform="translate(1282 8552)" clip-path="url(#clip-path)">
      <g transform="matrix(1, 0, 0, 1, 0, 0)" filter="url(#Neuo_dark_shade_)">
        <rect id="Neuo_dark_shade_2" data-name="Neuo (dark shade)" width="43.182" height="43.182" rx="21.591" transform="translate(3.41 3.41)" fill="#f5f5f5"/>
      </g>
      <g transform="matrix(1, 0, 0, 1, 0, 0)" filter="url(#Neuo_white_shade_)">
        <rect id="Neuo_white_shade_2" data-name="Neuo (white shade)" width="43.182" height="43.182" rx="21.591" transform="translate(3.41 3.41)" fill="#f5f5f5"/>
      </g>
      <g transform="matrix(1, 0, 0, 1, 0, 0)" filter="url(#Button_background)">
        <rect id="Button_background-2" data-name="Button background" width="43.182" height="43.182" rx="21.591" transform="translate(3.41 3.41)" fill="#f5f5f5"/>
      </g>
    </g>
    <path id="パス_787" data-name="パス 787" d="M2728.6,197.255l.441-2.874h-2.758v-1.865a1.437,1.437,0,0,1,1.621-1.553h1.254v-2.447a15.3,15.3,0,0,0-2.226-.194,3.508,3.508,0,0,0-3.755,3.868v2.19h-2.524v2.874h2.524V204.2a10.044,10.044,0,0,0,3.106,0v-6.947Z" transform="translate(-1417.658 8380.677)" fill="#333"/>
  </g>
</svg>
