<svg xmlns="http://www.w3.org/2000/svg" xmlns:xlink="http://www.w3.org/1999/xlink" width="50" height="50" viewBox="0 0 50 50">
  <defs>
    <filter id="Mask" x="-12" y="-12" width="68" height="68" filterUnits="userSpaceOnUse">
      <feOffset dx="-3" dy="-3" input="SourceAlpha"/>
      <feGaussianBlur stdDeviation="3" result="blur"/>
      <feFlood flood-color="#fff"/>
      <feComposite operator="in" in2="blur"/>
      <feComposite in="SourceGraphic"/>
    </filter>
    <clipPath id="clip-path">
      <g transform="matrix(1, 0, 0, 1, 0, 0)" filter="url(#Mask)">
        <rect id="Mask-2" data-name="Mask" width="50" height="50" rx="25" transform="translate(0 0)" fill="#f5f5f5"/>
      </g>
    </clipPath>
    <filter id="Neuo_dark_shade_" x="1.409" y="1.409" width="49.182" height="49.182" filterUnits="userSpaceOnUse">
      <feOffset dx="1" dy="1" input="SourceAlpha"/>
      <feGaussianBlur stdDeviation="1" result="blur-2"/>
      <feFlood flood-opacity="0.161"/>
      <feComposite operator="in" in2="blur-2"/>
      <feComposite in="SourceGraphic"/>
    </filter>
    <filter id="Neuo_white_shade_" x="-0.591" y="-0.591" width="49.182" height="49.182" filterUnits="userSpaceOnUse">
      <feOffset dx="-1" dy="-1" input="SourceAlpha"/>
      <feGaussianBlur stdDeviation="1" result="blur-3"/>
      <feFlood flood-color="#fff"/>
      <feComposite operator="in" in2="blur-3"/>
      <feComposite in="SourceGraphic"/>
    </filter>
    <filter id="Button_background" x="-8.591" y="-8.591" width="61.182" height="61.182" filterUnits="userSpaceOnUse">
      <feOffset dx="-3" dy="-3" input="SourceAlpha"/>
      <feGaussianBlur stdDeviation="3" result="blur-4"/>
      <feFlood flood-color="#fff"/>
      <feComposite operator="in" in2="blur-4"/>
      <feComposite in="SourceGraphic"/>
    </filter>
  </defs>
  <g id="グループ_83" data-name="グループ 83" transform="translate(-1282 -8552)">
    <g id="Button" transform="translate(1282 8552)" clip-path="url(#clip-path)">
      <g transform="matrix(1, 0, 0, 1, 0, 0)" filter="url(#Neuo_dark_shade_)">
        <rect id="Neuo_dark_shade_2" data-name="Neuo (dark shade)" width="43.182" height="43.182" rx="21.591" transform="translate(3.41 3.41)" fill="#f5f5f5"/>
      </g>
      <g transform="matrix(1, 0, 0, 1, 0, 0)" filter="url(#Neuo_white_shade_)">
        <rect id="Neuo_white_shade_2" data-name="Neuo (white shade)" width="43.182" height="43.182" rx="21.591" transform="translate(3.41 3.41)" fill="#f5f5f5"/>
      </g>
      <g transform="matrix(1, 0, 0, 1, 0, 0)" filter="url(#Button_background)">
        <rect id="Button_background-2" data-name="Button background" width="43.182" height="43.182" rx="21.591" transform="translate(3.41 3.41)" fill="#f5f5f5"/>
      </g>
    </g>
    <g id="Logo" transform="translate(1300 8571)">
      <path id="white_background" data-name="white background" d="M14.256,4.485c.009.13.009.26.009.392A8.562,8.562,0,0,1,5.644,13.5v0A8.577,8.577,0,0,1,1,12.137a6.164,6.164,0,0,0,.721.044,6.084,6.084,0,0,0,3.763-1.3,3.034,3.034,0,0,1-2.831-2.1,3.02,3.02,0,0,0,1.368-.052,3.03,3.03,0,0,1-2.43-2.97V5.716A3.011,3.011,0,0,0,2.966,6.1,3.034,3.034,0,0,1,2.028,2.05,8.6,8.6,0,0,0,8.273,5.215a3.033,3.033,0,0,1,5.163-2.763,6.08,6.08,0,0,0,1.924-.736,3.041,3.041,0,0,1-1.332,1.676,6.026,6.026,0,0,0,1.74-.477A6.155,6.155,0,0,1,14.256,4.485Z" transform="translate(-1 -1.497)" fill="#333"/>
    </g>
  </g>
</svg>
