<?xml version="1.0" encoding="UTF-8"?><svg id="_レイヤー_2" xmlns="http://www.w3.org/2000/svg" viewBox="0 0 14.77 12"><defs><style>.cls-1{fill:#333;}</style></defs><g id="_レイヤー_1-2"><g id="Logo"><path id="white_background" class="cls-1" d="M13.26,2.99c0,.13,0,.26,0,.39,.03,4.73-3.77,8.59-8.5,8.62-.04,0-.08,0-.12,0h0c-1.65,0-3.26-.47-4.64-1.36,.24,.03,.48,.04,.72,.04,1.36,0,2.69-.46,3.76-1.3-1.3-.02-2.43-.87-2.83-2.1,.45,.09,.92,.07,1.37-.05-1.41-.29-2.43-1.53-2.43-2.97v-.04c.42,.24,.89,.37,1.38,.38C.63,3.71,.22,1.94,1.03,.55c1.54,1.89,3.81,3.04,6.24,3.17-.38-1.63,.64-3.26,2.27-3.64,1.05-.24,2.15,.09,2.89,.88,.68-.13,1.33-.38,1.92-.74-.23,.7-.7,1.3-1.33,1.68,.6-.07,1.19-.23,1.74-.48-.41,.61-.92,1.14-1.51,1.57Z"/></g></g></svg>