<svg xmlns="http://www.w3.org/2000/svg" xmlns:xlink="http://www.w3.org/1999/xlink" width="40" height="40" viewBox="0 0 40 40">
  <defs>
    <filter id="Mask" x="-12" y="-12" width="58" height="58" filterUnits="userSpaceOnUse">
      <feOffset dx="-3" dy="-3" input="SourceAlpha"/>
      <feGaussianBlur stdDeviation="3" result="blur"/>
      <feFlood flood-color="#fff"/>
      <feComposite operator="in" in2="blur"/>
      <feComposite in="SourceGraphic"/>
    </filter>
    <clipPath id="clip-path">
      <g transform="matrix(1, 0, 0, 1, 0, 0)" filter="url(#Mask)">
        <rect id="Mask-2" data-name="Mask" width="40" height="40" rx="6" transform="translate(128 311)" fill="#f5f5f5"/>
      </g>
    </clipPath>
    <filter id="Neuo_dark_shade_" x="0.727" y="0.728" width="40.545" height="40.545" filterUnits="userSpaceOnUse">
      <feOffset dx="1" dy="1" input="SourceAlpha"/>
      <feGaussianBlur stdDeviation="1" result="blur-2"/>
      <feFlood flood-opacity="0.161"/>
      <feComposite operator="in" in2="blur-2"/>
      <feComposite in="SourceGraphic"/>
    </filter>
    <filter id="Neuo_white_shade_" x="-1.273" y="-1.272" width="40.545" height="40.545" filterUnits="userSpaceOnUse">
      <feOffset dx="-1" dy="-1" input="SourceAlpha"/>
      <feGaussianBlur stdDeviation="1" result="blur-3"/>
      <feFlood flood-color="#fff"/>
      <feComposite operator="in" in2="blur-3"/>
      <feComposite in="SourceGraphic"/>
    </filter>
    <filter id="Button_background" x="-9.273" y="-9.272" width="52.545" height="52.545" filterUnits="userSpaceOnUse">
      <feOffset dx="-3" dy="-3" input="SourceAlpha"/>
      <feGaussianBlur stdDeviation="3" result="blur-4"/>
      <feFlood flood-color="#fff"/>
      <feComposite operator="in" in2="blur-4"/>
      <feComposite in="SourceGraphic"/>
    </filter>
  </defs>
  <g id="グループ_20038" data-name="グループ 20038" transform="translate(-1150 -7322)">
    <g id="Button" transform="translate(1022 7011)" clip-path="url(#clip-path)">
      <g transform="matrix(1, 0, 0, 1, 128, 311)" filter="url(#Neuo_dark_shade_)">
        <rect id="Neuo_dark_shade_2" data-name="Neuo (dark shade)" width="34.545" height="34.545" rx="4" transform="translate(2.73 2.73)" fill="#f5f5f5"/>
      </g>
      <g transform="matrix(1, 0, 0, 1, 128, 311)" filter="url(#Neuo_white_shade_)">
        <rect id="Neuo_white_shade_2" data-name="Neuo (white shade)" width="34.545" height="34.545" rx="4" transform="translate(2.73 2.73)" fill="#f5f5f5"/>
      </g>
      <g transform="matrix(1, 0, 0, 1, 128, 311)" filter="url(#Button_background)">
        <rect id="Button_background-2" data-name="Button background" width="34.545" height="34.545" rx="3" transform="translate(2.73 2.73)" fill="#f5f5f5"/>
      </g>
    </g>
    <g id="シンボル_82" data-name="シンボル 82" transform="translate(-92 6827)">
      <path id="パス_10" data-name="パス 10" d="M8,0,6.545,1.455l5.506,5.506H0V9.039H12.052L6.545,14.545,8,16l8-8Z" transform="translate(1254 507)" fill="#333"/>
    </g>
  </g>
</svg>
