<svg xmlns="http://www.w3.org/2000/svg" xmlns:xlink="http://www.w3.org/1999/xlink" width="50" height="50" viewBox="0 0 50 50">
  <defs>
    <filter id="Mask" x="-12" y="-12" width="68" height="68" filterUnits="userSpaceOnUse">
      <feOffset dx="-3" dy="-3" input="SourceAlpha"/>
      <feGaussianBlur stdDeviation="3" result="blur"/>
      <feFlood flood-color="#fff"/>
      <feComposite operator="in" in2="blur"/>
      <feComposite in="SourceGraphic"/>
    </filter>
    <clipPath id="clip-path">
      <g transform="matrix(1, 0, 0, 1, 0, 0)" filter="url(#Mask)">
        <rect id="Mask-2" data-name="Mask" width="50" height="50" rx="25" transform="translate(0 0)" fill="#f5f5f5"/>
      </g>
    </clipPath>
    <filter id="Neuo_dark_shade_" x="1.409" y="1.409" width="49.182" height="49.182" filterUnits="userSpaceOnUse">
      <feOffset dx="1" dy="1" input="SourceAlpha"/>
      <feGaussianBlur stdDeviation="1" result="blur-2"/>
      <feFlood flood-opacity="0.161"/>
      <feComposite operator="in" in2="blur-2"/>
      <feComposite in="SourceGraphic"/>
    </filter>
    <filter id="Neuo_white_shade_" x="-0.591" y="-0.591" width="49.182" height="49.182" filterUnits="userSpaceOnUse">
      <feOffset dx="-1" dy="-1" input="SourceAlpha"/>
      <feGaussianBlur stdDeviation="1" result="blur-3"/>
      <feFlood flood-color="#fff"/>
      <feComposite operator="in" in2="blur-3"/>
      <feComposite in="SourceGraphic"/>
    </filter>
    <filter id="Button_background" x="-8.591" y="-8.591" width="61.182" height="61.182" filterUnits="userSpaceOnUse">
      <feOffset dx="-3" dy="-3" input="SourceAlpha"/>
      <feGaussianBlur stdDeviation="3" result="blur-4"/>
      <feFlood flood-color="#fff"/>
      <feComposite operator="in" in2="blur-4"/>
      <feComposite in="SourceGraphic"/>
    </filter>
  </defs>
  <g id="グループ_24603" data-name="グループ 24603" transform="translate(-1037 -614)">
    <g id="Button" transform="translate(1037 614)" clip-path="url(#clip-path)">
      <g transform="matrix(1, 0, 0, 1, 0, 0)" filter="url(#Neuo_dark_shade_)">
        <rect id="Neuo_dark_shade_2" data-name="Neuo (dark shade)" width="43.182" height="43.182" rx="21.591" transform="translate(3.41 3.41)" fill="#f5f5f5"/>
      </g>
      <g transform="matrix(1, 0, 0, 1, 0, 0)" filter="url(#Neuo_white_shade_)">
        <rect id="Neuo_white_shade_2" data-name="Neuo (white shade)" width="43.182" height="43.182" rx="21.591" transform="translate(3.41 3.41)" fill="#f5f5f5"/>
      </g>
      <g transform="matrix(1, 0, 0, 1, 0, 0)" filter="url(#Button_background)">
        <rect id="Button_background-2" data-name="Button background" width="43.182" height="43.182" rx="21.591" transform="translate(3.41 3.41)" fill="#f5f5f5"/>
      </g>
    </g>
    <g id="グループ_93" data-name="グループ 93" transform="translate(1051 625.561)">
      <circle id="楕円形_2" data-name="楕円形 2" cx="2.18" cy="2.18" r="2.18" transform="translate(4 15.64)" fill="#333"/>
      <path id="パス_792" data-name="パス 792" d="M4,4.44V7.27A12.731,12.731,0,0,1,16.73,20h2.83A15.565,15.565,0,0,0,4,4.44ZM4,10.1v2.83A7.076,7.076,0,0,1,11.07,20H13.9A9.9,9.9,0,0,0,4,10.1Z" fill="#333"/>
    </g>
  </g>
</svg>
