<?xml version="1.0" encoding="utf-8"?>
<!-- Generator: Adobe Illustrator 25.4.1, SVG Export Plug-In . SVG Version: 6.00 Build 0)  -->
<svg version="1.1" id="レイヤー_1" xmlns="http://www.w3.org/2000/svg" xmlns:xlink="http://www.w3.org/1999/xlink" x="0px"
	 y="0px" viewBox="0 0 40 40" style="enable-background:new 0 0 40 40;" xml:space="preserve">
<style type="text/css">
	.st0{fill:#F5F5F5;}
	.st1{fill:#333333;}
</style>
<g id="グループ_20039" transform="translate(1190 7362) rotate(180)">
	<g id="Button" transform="translate(1022 7011)">
		<g transform="matrix(-1, 0, 0, -1, 168, 351)">
			<path id="Neuo_dark_shade_2" class="st0" d="M32.7,37.3H6.1c-2.2,0-4-1.8-4-4V6.7c0-2.2,1.8-4,4-4h26.5c2.2,0,4,1.8,4,4v26.5
				C36.7,35.5,34.9,37.3,32.7,37.3z"/>
		</g>
		<g transform="matrix(-1, 0, 0, -1, 168, 351)">
			<path id="Neuo_white_shade_2" class="st0" d="M32.7,37.3H6.1c-2.2,0-4-1.8-4-4V6.7c0-2.2,1.8-4,4-4h26.5c2.2,0,4,1.8,4,4v26.5
				C36.7,35.5,34.9,37.3,32.7,37.3z"/>
		</g>
		<g transform="matrix(-1, 0, 0, -1, 168, 351)">
			<path id="Button_background-2" class="st0" d="M33.7,37.3H5.1c-1.7,0-3-1.3-3-3V5.7c0-1.7,1.3-3,3-3h28.5c1.7,0,3,1.3,3,3v28.5
				C36.7,35.9,35.3,37.3,33.7,37.3z"/>
		</g>
	</g>
	<g id="シンボル_82" transform="translate(-92 6827)">
		<path id="パス_10" class="st1" d="M1262.6,507l-1.5,1.5l5.5,5.5h-12.1v2.1h12.1l-5.5,5.5l1.5,1.5l8-8L1262.6,507z"/>
	</g>
</g>
</svg>
