<svg xmlns="http://www.w3.org/2000/svg" width="124.855" height="52" viewBox="0 0 124.855 52">
  <path id="パス_799" data-name="パス 799" d="M896.405-222.7c-3.945.146-4.383.585-4.383,4.967v12.418c0,3.994-.487,12.273-10.762,12.273-7.208,0-11.2-2.971-11.2-10.86v-13.831c0-4.382-.438-4.821-4.383-4.967v-.828h13.1v.828c-3.945.146-4.383.585-4.383,4.967v13.49c0,6.818,2.63,9.253,7.987,9.253,5.211,0,7.792-3.263,7.792-9.5v-13.246c0-4.382-.439-4.821-4.383-4.967v-.828h10.616Zm10.078,4.967v18.116c0,4.383.438,4.822,4.383,4.968v.827h-13v-.827c3.945-.146,4.383-.585,4.383-4.968v-18.116c0-4.382-.438-4.821-4.383-4.967v-.828h13v.828C906.921-222.557,906.483-222.118,906.483-217.736Zm10.225,9.351c0-9.4,5.308-15.925,13.977-15.925a21.608,21.608,0,0,1,9.058,2l.34,7.694-.827.049c-1.559-5.795-4.675-8.23-8.717-8.23-5.844,0-9.058,5.5-9.058,14.22,0,8.863,3.652,14.025,8.912,14.025,5.21,0,7.45-2.873,9.106-7.938l.779.049-.535,7.256a22.492,22.492,0,0,1-9.35,2.143C922.065-193.045,916.708-198.938,916.708-208.385Zm38.177,13.733v.827H942.954v-.827c3.507-.146,3.9-.585,3.9-4.968v-18.9c0-4.529-.487-4.821-3.9-4.967v-.828l8.036-1.169v25.859C950.99-195.237,951.379-194.8,954.885-194.652Zm13.148,0v.827H956.1v-.827c3.507-.146,3.9-.585,3.9-4.968v-9.545c0-4.529-.487-4.821-3.9-4.967v-.828l8.035-1.169v16.509C964.137-195.237,964.527-194.8,968.033-194.652Zm-8.911-29.415a2.816,2.816,0,0,1,2.824-2.775,2.849,2.849,0,0,1,2.825,2.775,2.858,2.858,0,0,1-2.825,2.825A2.826,2.826,0,0,1,959.122-224.067Zm31.409,18.652c0,6.721-3.847,12.37-8.961,12.37a6.548,6.548,0,0,1-3.652-.974l.341-.779a6.186,6.186,0,0,0,2.532.438c3.7,0,5.406-3.555,5.406-9.35,0-6.721-2.581-9.3-5.406-9.3a5.224,5.224,0,0,0-4.48,2.679v19.576c0,4.383.487,4.822,4.87,4.968v.828H968.276v-.828c3.506-.146,3.9-.585,3.9-4.968v-18.408c0-4.529-.487-4.821-3.9-4.967v-.828l7.548-1.169v4.627c1.607-2.776,3.847-4.627,6.964-4.627C987.366-216.129,990.531-211.843,990.531-205.415ZM896.05-183.068v3.886a2.265,2.265,0,0,0,.259,1.138,1.362,1.362,0,0,0,1.294.685,1.524,1.524,0,0,0,1.484-.74,2.339,2.339,0,0,0,.211-1.083v-3.886h.861v3.531a4.067,4.067,0,0,1-.314,1.784,2.2,2.2,0,0,1-2.173,1.139,2.2,2.2,0,0,1-2.169-1.139,4.07,4.07,0,0,1-.313-1.784v-3.531Zm5.515,0h.86v6.287h-.86Zm4.541,0h2.513a2.355,2.355,0,0,1,1.985.92,3.427,3.427,0,0,1,.629,2.127,4.279,4.279,0,0,1-.372,1.81,2.291,2.291,0,0,1-2.251,1.43h-2.5Zm2.346,5.559a2.248,2.248,0,0,0,.694-.09,1.534,1.534,0,0,0,.8-.642,2.663,2.663,0,0,0,.355-.975,3.8,3.8,0,0,0,.063-.659,3.122,3.122,0,0,0-.454-1.815,1.662,1.662,0,0,0-1.463-.646h-1.477v4.827Zm6.586-3.73a1.744,1.744,0,0,1,.694.593,2.055,2.055,0,0,1,.306.809,5.359,5.359,0,0,1,.068,1.01h-3.334a1.977,1.977,0,0,0,.327,1.122,1.09,1.09,0,0,0,.947.423,1.215,1.215,0,0,0,.955-.4,1.354,1.354,0,0,0,.283-.537h.758a1.614,1.614,0,0,1-.2.563,2.02,2.02,0,0,1-.378.507,1.777,1.777,0,0,1-.862.462,2.58,2.58,0,0,1-.624.069,1.914,1.914,0,0,1-1.442-.623,2.433,2.433,0,0,1-.591-1.744,2.643,2.643,0,0,1,.6-1.793,1.958,1.958,0,0,1,1.557-.69A2.075,2.075,0,0,1,915.038-181.239Zm.276,1.8a2,2,0,0,0-.216-.8,1.109,1.109,0,0,0-1.049-.557,1.161,1.161,0,0,0-.883.383,1.457,1.457,0,0,0-.377.974Zm2.138,1.22a1.1,1.1,0,0,0,.2.591,1.248,1.248,0,0,0,1.03.372,1.544,1.544,0,0,0,.769-.186.615.615,0,0,0,.332-.576.489.489,0,0,0-.265-.449,3.17,3.17,0,0,0-.67-.219l-.622-.154a3.053,3.053,0,0,1-.878-.325.968.968,0,0,1-.5-.865,1.311,1.311,0,0,1,.475-1.052,1.907,1.907,0,0,1,1.277-.4,1.785,1.785,0,0,1,1.514.608,1.306,1.306,0,0,1,.282.83h-.728a.866.866,0,0,0-.188-.472,1.224,1.224,0,0,0-.942-.3,1.15,1.15,0,0,0-.677.166.517.517,0,0,0-.23.439.541.541,0,0,0,.3.478,1.844,1.844,0,0,0,.515.188l.519.124a4.083,4.083,0,0,1,1.134.389,1.033,1.033,0,0,1,.449.929,1.407,1.407,0,0,1-.47,1.057,2.018,2.018,0,0,1-1.432.445,1.935,1.935,0,0,1-1.467-.464,1.747,1.747,0,0,1-.461-1.149Zm3.837-4.849h.783v.873h-.783Zm0,1.725h.783v4.562h-.783Zm4.408.162a2.106,2.106,0,0,1,.443.437v-.578h.711v4.169a3.078,3.078,0,0,1-.256,1.378,1.836,1.836,0,0,1-1.8.933,2.212,2.212,0,0,1-1.242-.332,1.3,1.3,0,0,1-.563-1.038h.783a.87.87,0,0,0,.222.475,1.124,1.124,0,0,0,.817.257,1.121,1.121,0,0,0,1.153-.625,3.538,3.538,0,0,0,.15-1.314,1.513,1.513,0,0,1-.555.522,1.837,1.837,0,0,1-.857.172,1.828,1.828,0,0,1-1.3-.529,2.329,2.329,0,0,1-.556-1.748,2.654,2.654,0,0,1,.561-1.8,1.727,1.727,0,0,1,1.353-.646A1.659,1.659,0,0,1,925.7-181.181Zm.094.826a1.115,1.115,0,0,0-.89-.411,1.1,1.1,0,0,0-1.107.762,3,3,0,0,0-.157,1.066,1.9,1.9,0,0,0,.313,1.179,1.006,1.006,0,0,0,.841.4,1.179,1.179,0,0,0,1.162-.749,2.422,2.422,0,0,0,.187-.988A1.918,1.918,0,0,0,925.791-180.355Zm2.145-1.01h.732v.651a2.041,2.041,0,0,1,.689-.578,1.836,1.836,0,0,1,.809-.176,1.334,1.334,0,0,1,1.318.681,2.423,2.423,0,0,1,.188,1.066v2.94h-.783v-2.889a1.558,1.558,0,0,0-.124-.676.752.752,0,0,0-.745-.428,1.522,1.522,0,0,0-.449.055,1.165,1.165,0,0,0-.557.377,1.138,1.138,0,0,0-.25.469,3.181,3.181,0,0,0-.058.691v2.4h-.77Zm11.422-1.523a2.232,2.232,0,0,1,1.131,1.724h-.843a1.533,1.533,0,0,0-.625-1,2.111,2.111,0,0,0-1.194-.315,1.855,1.855,0,0,0-1.44.655,2.853,2.853,0,0,0-.584,1.952,3.162,3.162,0,0,0,.482,1.825,1.769,1.769,0,0,0,1.573.7,1.987,1.987,0,0,0,1.382-.494,2.1,2.1,0,0,0,.56-1.6h-1.969v-.706h2.761v3.364h-.548l-.205-.809a3.2,3.2,0,0,1-.754.659,2.789,2.789,0,0,1-1.4.317,2.7,2.7,0,0,1-1.89-.723,3.466,3.466,0,0,1-.864-2.491,3.608,3.608,0,0,1,.844-2.513,2.665,2.665,0,0,1,2.076-.89A3.131,3.131,0,0,1,939.358-182.888Zm4.9,3.333a.42.42,0,0,0,.355-.222.69.69,0,0,0,.051-.3.628.628,0,0,0-.28-.573,1.49,1.49,0,0,0-.8-.179,1.014,1.014,0,0,0-.854.327,1.079,1.079,0,0,0-.183.538h-.719a1.326,1.326,0,0,1,.549-1.182,2.247,2.247,0,0,1,1.225-.333,2.493,2.493,0,0,1,1.312.308,1.046,1.046,0,0,1,.5.959v2.641a.334.334,0,0,0,.049.192.237.237,0,0,0,.208.073.979.979,0,0,0,.115-.007c.043,0,.089-.01.137-.019v.569a2.084,2.084,0,0,1-.274.065,2.119,2.119,0,0,1-.256.012.634.634,0,0,1-.578-.282,1.09,1.09,0,0,1-.133-.424,1.95,1.95,0,0,1-.676.535,2.1,2.1,0,0,1-.972.227,1.446,1.446,0,0,1-1.042-.387,1.285,1.285,0,0,1-.4-.968,1.249,1.249,0,0,1,.4-.988,1.9,1.9,0,0,1,1.044-.431Zm-1.623,2.081a.909.909,0,0,0,.578.192,1.766,1.766,0,0,0,.788-.188,1.058,1.058,0,0,0,.642-1.021v-.62a1.313,1.313,0,0,1-.363.151,3.1,3.1,0,0,1-.436.085l-.466.06a1.807,1.807,0,0,0-.629.175.683.683,0,0,0-.358.641A.634.634,0,0,0,942.635-177.474Zm3.974-5.594h.771v6.287h-.771Zm1.86,0h.771v6.287h-.771Zm4.67,1.829a1.747,1.747,0,0,1,.693.593,2.055,2.055,0,0,1,.306.809,5.271,5.271,0,0,1,.068,1.01h-3.334a1.984,1.984,0,0,0,.327,1.122,1.091,1.091,0,0,0,.947.423,1.216,1.216,0,0,0,.956-.4,1.368,1.368,0,0,0,.283-.537h.757a1.594,1.594,0,0,1-.2.563,2.015,2.015,0,0,1-.377.507,1.781,1.781,0,0,1-.862.462,2.582,2.582,0,0,1-.625.069,1.915,1.915,0,0,1-1.442-.623,2.433,2.433,0,0,1-.591-1.744,2.644,2.644,0,0,1,.6-1.793,1.958,1.958,0,0,1,1.557-.69A2.078,2.078,0,0,1,953.139-181.239Zm.276,1.8a2.02,2.02,0,0,0-.217-.8,1.107,1.107,0,0,0-1.048-.557,1.159,1.159,0,0,0-.883.383,1.453,1.453,0,0,0-.378.974Zm1.7-1.926h.732v.792a1.751,1.751,0,0,1,.441-.563,1.141,1.141,0,0,1,.808-.332c.015,0,.039,0,.073.005l.176.017v.813a1.087,1.087,0,0,0-.127-.017c-.038,0-.08,0-.126,0a1.1,1.1,0,0,0-.894.374,1.3,1.3,0,0,0-.313.863v2.636h-.77Zm5.675,0h.852q-.164.441-.723,2.013-.42,1.182-.7,1.927a13.12,13.12,0,0,1-.941,2.138,1.078,1.078,0,0,1-.941.385,1.778,1.778,0,0,1-.25-.013,2.087,2.087,0,0,1-.216-.047v-.7a2.516,2.516,0,0,0,.291.068,1.058,1.058,0,0,0,.158.013.555.555,0,0,0,.314-.07.662.662,0,0,0,.169-.173c.014-.023.065-.14.153-.35s.153-.368.193-.47l-1.7-4.719h.873l1.228,3.734Z" transform="translate(-865.676 226.842)" fill="#191919"/>
</svg>
