<svg xmlns="http://www.w3.org/2000/svg" width="100.871" height="42.011"><path data-name="パス 799" d="M24.824 3.342c-3.187.118-3.541.473-3.541 4.013v10.033c0 3.227-.393 9.915-8.695 9.915-5.823 0-9.049-2.4-9.049-8.774V7.355c0-3.54-.354-3.895-3.541-4.013v-.669h10.586v.669c-3.187.118-3.541.473-3.541 4.013v10.9c0 5.508 2.125 7.476 6.453 7.476 4.21 0 6.3-2.636 6.3-7.673v-10.7c0-3.54-.355-3.895-3.541-4.013v-.669h8.569zm8.142 4.013v14.636c0 3.541.354 3.9 3.541 4.014v.668H26.004v-.668c3.187-.118 3.541-.473 3.541-4.014V7.355c0-3.54-.354-3.895-3.541-4.013v-.669h10.505v.669c-3.185.12-3.541.475-3.541 4.015zm8.261 7.555c0-7.594 4.288-12.866 11.292-12.866a17.457 17.457 0 017.318 1.613l.275 6.216-.668.04c-1.259-4.682-3.777-6.649-7.042-6.649-4.721 0-7.318 4.446-7.318 11.488 0 7.16 2.95 11.331 7.2 11.331 4.209 0 6.019-2.321 7.357-6.413l.629.04-.432 5.862a18.171 18.171 0 01-7.554 1.731c-6.727.002-11.055-4.761-11.055-12.391zm30.843 11.1v.668h-9.639v-.668c2.833-.118 3.148-.473 3.148-4.014V6.731c0-3.659-.393-3.895-3.148-4.013v-.669l6.492-.944v20.892c.001 3.537.317 3.892 3.149 4.01zm10.622 0v.668h-9.639v-.668c2.833-.118 3.148-.473 3.148-4.014v-7.711c0-3.659-.393-3.895-3.148-4.013v-.669l6.492-.944v13.338c.002 3.537.317 3.892 3.15 4.01zm-7.2-23.765A2.275 2.275 0 0177.774.003a2.3 2.3 0 012.282 2.242 2.309 2.309 0 01-2.282 2.282 2.283 2.283 0 01-2.278-2.285zm25.376 15.069c0 5.43-3.108 9.994-7.24 9.994a5.29 5.29 0 01-2.951-.787l.275-.629a5 5 0 002.046.354c2.99 0 4.368-2.872 4.368-7.554 0-5.43-2.085-7.515-4.368-7.515a4.221 4.221 0 00-3.619 2.164v15.816c0 3.541.393 3.9 3.935 4.014v.669H82.891v-.669c2.833-.118 3.147-.473 3.147-4.014V14.285c0-3.659-.393-3.895-3.147-4.013v-.669l6.1-.944v3.738c1.3-2.243 3.108-3.738 5.626-3.738 3.697-.004 6.254 3.459 6.254 8.652zM24.536 35.368v3.14a1.829 1.829 0 00.209.919 1.1 1.1 0 001.045.553 1.232 1.232 0 001.2-.6 1.89 1.89 0 00.17-.875v-3.14h.7v2.853a3.286 3.286 0 01-.254 1.441 1.781 1.781 0 01-1.756.92 1.775 1.775 0 01-1.752-.92 3.288 3.288 0 01-.253-1.441v-2.853zm4.456 0h.695v5.079h-.695zm3.669 0h2.03a1.9 1.9 0 011.6.743 2.769 2.769 0 01.508 1.718 3.458 3.458 0 01-.3 1.462 1.851 1.851 0 01-1.819 1.155h-2.016zm1.9 4.491a1.815 1.815 0 00.561-.073 1.239 1.239 0 00.643-.519 2.151 2.151 0 00.287-.788 3.067 3.067 0 00.051-.532 2.522 2.522 0 00-.367-1.466 1.342 1.342 0 00-1.182-.522h-1.193v3.9zm5.319-3.017a1.408 1.408 0 01.561.479 1.659 1.659 0 01.247.654 4.326 4.326 0 01.055.816h-2.694a1.6 1.6 0 00.264.906.88.88 0 00.765.342.982.982 0 00.771-.323 1.094 1.094 0 00.229-.434h.612a1.305 1.305 0 01-.161.455 1.632 1.632 0 01-.305.41 1.436 1.436 0 01-.7.373 2.084 2.084 0 01-.5.056 1.546 1.546 0 01-1.165-.5 1.966 1.966 0 01-.477-1.409 2.136 2.136 0 01.481-1.449 1.582 1.582 0 011.258-.557 1.677 1.677 0 01.759.181zm.223 1.454a1.621 1.621 0 00-.174-.646.9.9 0 00-.848-.45.938.938 0 00-.713.309 1.177 1.177 0 00-.3.787zm1.727.986a.89.89 0 00.159.477 1.008 1.008 0 00.832.3 1.247 1.247 0 00.621-.15.5.5 0 00.268-.465.4.4 0 00-.214-.363 2.559 2.559 0 00-.541-.177l-.5-.124a2.466 2.466 0 01-.709-.263.782.782 0 01-.408-.7 1.059 1.059 0 01.384-.85 1.541 1.541 0 011.032-.326 1.442 1.442 0 011.223.491 1.055 1.055 0 01.228.671h-.588a.7.7 0 00-.152-.381.989.989 0 00-.761-.244.929.929 0 00-.547.134.418.418 0 00-.186.355.437.437 0 00.244.386 1.49 1.49 0 00.416.152l.419.1a3.3 3.3 0 01.916.314.835.835 0 01.363.751 1.137 1.137 0 01-.38.854 1.63 1.63 0 01-1.157.359 1.564 1.564 0 01-1.185-.375 1.411 1.411 0 01-.372-.928zm3.1-3.918h.633v.705h-.633zm0 1.394h.633v3.686h-.633zm3.561.131a1.7 1.7 0 01.358.353v-.467h.574v3.368a2.487 2.487 0 01-.207 1.113 1.484 1.484 0 01-1.457.754 1.788 1.788 0 01-1-.268 1.047 1.047 0 01-.455-.839h.633a.7.7 0 00.179.384.908.908 0 00.66.208.906.906 0 00.932-.5 2.858 2.858 0 00.121-1.062 1.222 1.222 0 01-.448.422 1.485 1.485 0 01-.692.139 1.477 1.477 0 01-1.049-.427 1.882 1.882 0 01-.449-1.412 2.144 2.144 0 01.453-1.453 1.4 1.4 0 011.093-.522 1.34 1.34 0 01.754.21zm.076.667a.9.9 0 00-.719-.332.888.888 0 00-.894.616 2.425 2.425 0 00-.127.861 1.533 1.533 0 00.253.953.813.813 0 00.679.326.953.953 0 00.939-.605 1.957 1.957 0 00.151-.8 1.549 1.549 0 00-.282-1.018zm1.733-.816h.591v.526a1.649 1.649 0 01.557-.467 1.483 1.483 0 01.654-.142 1.077 1.077 0 011.065.55 1.958 1.958 0 01.152.861v2.375h-.633v-2.334a1.258 1.258 0 00-.1-.546.607.607 0 00-.6-.346 1.23 1.23 0 00-.363.044.942.942 0 00-.45.3.919.919 0 00-.2.379 2.572 2.572 0 00-.047.558v1.94h-.622zm9.228-1.23a1.8 1.8 0 01.914 1.393h-.681a1.239 1.239 0 00-.5-.81 1.706 1.706 0 00-.965-.254 1.5 1.5 0 00-1.163.529 2.305 2.305 0 00-.472 1.577 2.555 2.555 0 00.389 1.474 1.429 1.429 0 001.271.569 1.605 1.605 0 001.117-.4 1.694 1.694 0 00.452-1.292h-1.596v-.57h2.23v2.718h-.443l-.166-.654a2.585 2.585 0 01-.609.532 2.254 2.254 0 01-1.133.256 2.184 2.184 0 01-1.527-.584 2.8 2.8 0 01-.7-2.012 2.915 2.915 0 01.682-2.03 2.153 2.153 0 011.677-.719 2.53 2.53 0 011.219.278zm3.959 2.693a.34.34 0 00.287-.179.557.557 0 00.041-.24.508.508 0 00-.226-.463 1.2 1.2 0 00-.647-.145.819.819 0 00-.69.264.871.871 0 00-.148.435h-.58a1.071 1.071 0 01.444-.955 1.815 1.815 0 01.99-.269 2.014 2.014 0 011.06.249.845.845 0 01.4.775v2.134a.27.27 0 00.04.155.191.191 0 00.168.059.788.788 0 00.093-.006c.035 0 .072-.008.111-.015v.46a1.685 1.685 0 01-.221.052 1.713 1.713 0 01-.207.01.512.512 0 01-.467-.228.881.881 0 01-.107-.343 1.576 1.576 0 01-.546.432 1.693 1.693 0 01-.785.183 1.168 1.168 0 01-.842-.313 1.038 1.038 0 01-.326-.782 1.009 1.009 0 01.322-.8 1.532 1.532 0 01.843-.348zm-1.311 1.681a.734.734 0 00.467.155 1.426 1.426 0 00.637-.152.854.854 0 00.519-.825v-.5a1.062 1.062 0 01-.293.122 2.505 2.505 0 01-.352.069l-.376.048a1.458 1.458 0 00-.508.141.552.552 0 00-.289.518.512.512 0 00.195.425zm3.211-4.519h.623v5.079h-.623zm1.5 0h.623v5.079h-.623zm3.775 1.477a1.411 1.411 0 01.56.479 1.66 1.66 0 01.247.654 4.254 4.254 0 01.055.816H68.83a1.6 1.6 0 00.264.906.881.881 0 00.765.342.982.982 0 00.772-.323 1.1 1.1 0 00.229-.434h.612a1.288 1.288 0 01-.161.455 1.628 1.628 0 01-.3.41 1.439 1.439 0 01-.7.373 2.085 2.085 0 01-.5.056 1.547 1.547 0 01-1.165-.5 1.966 1.966 0 01-.477-1.409 2.136 2.136 0 01.482-1.449 1.582 1.582 0 011.258-.557 1.679 1.679 0 01.753.181zm.223 1.454a1.632 1.632 0 00-.175-.646.894.894 0 00-.847-.45.937.937 0 00-.713.309 1.174 1.174 0 00-.305.787zm1.374-1.556h.591v.64a1.414 1.414 0 01.356-.455.921.921 0 01.653-.268h.059l.142.014v.657a.879.879 0 00-.1-.014h-.1a.886.886 0 00-.722.3 1.054 1.054 0 00-.253.7v2.13h-.622zm4.585 0h.688q-.132.356-.584 1.626-.339.955-.567 1.557a10.6 10.6 0 01-.76 1.727.871.871 0 01-.76.311 1.436 1.436 0 01-.2-.01 1.681 1.681 0 01-.174-.038v-.567a2.03 2.03 0 00.235.055.854.854 0 00.128.01.448.448 0 00.254-.057.535.535 0 00.137-.14c.011-.019.052-.113.124-.283s.124-.3.156-.38l-1.369-3.813h.705l.992 3.017z" fill="#191919"/></svg>